<?xml version="1.0" encoding="UTF-8" standalone="no"?>
<!DOCTYPE svg PUBLIC "-//W3C//DTD SVG 1.1//EN" "http://www.w3.org/Graphics/SVG/1.1/DTD/svg11.dtd">
<!-- з”ұ Microsoft Visio, SVG Export з”ўз”ҹ y35.0332.svg й Ғ-1 -->
<svg xmlns="http://www.w3.org/2000/svg" xmlns:xlink="http://www.w3.org/1999/xlink" xmlns:ev="http://www.w3.org/2001/xml-events"
		width="8.34506in" height="2.82538in" viewBox="0 0 600.844 203.427" xml:space="preserve" color-interpolation-filters="sRGB"
		class="st4">
	<style type="text/css">
	<![CDATA[
		.st1 {fill:none;stroke:none;stroke-linecap:round;stroke-linejoin:round;stroke-width:0.75}
		.st2 {fill:#000000;font-family:ж–°зҙ°жҳҺй«”;font-size:12pt}
		.st3 {stroke:#000000;stroke-linecap:round;stroke-linejoin:round;stroke-width:0.24}
		.st4 {fill:none;fill-rule:evenodd;font-size:12px;overflow:visible;stroke-linecap:square;stroke-miterlimit:3}
	]]>
	</style>

	<g>
		<title>й Ғ-1</title>
		<g id="group50-1" transform="translate(0.375,-0.375)">
			<title>е·ҘдҪңиЎЁ.50</title>
			<g id="shape2-2" transform="translate(0,-73.1339)">
				<title>е·ҘдҪңиЎЁ.2</title>
				<desc>иҲ¬иҢ¶зӣ§дјҪв”Җв”Җв”ҖгҖҖй»ғгҖҖиөӨв”Җв”Җв”Җв”ҖгҖҖе‘өгҖҖиІ¬в”Җв”Җв”Җв”ҖгҖҖзҫҜгҖҖзЈЁв”Җв”Җв”Җв”ҖгҖҖзҫҜгҖҖзЈЁ</desc>
				<rect x="0" y="183.585" width="600.094" height="19.8425" class="st1"/>
				<text x="20.62" y="198.31" class="st2">иҲ¬иҢ¶зӣ§дјҪв”Җв”Җв”ҖгҖҖй»ғгҖҖиөӨв”Җв”Җв”Җв”ҖгҖҖе‘өгҖҖиІ¬в”Җв”Җв”Җв”ҖгҖҖзҫҜгҖҖзЈЁв”Җв”Җв”Җв”ҖгҖҖзҫҜгҖҖзЈЁ</text>			</g>
			<g id="shape3-5" transform="translate(-1.59872E-14,-18.2835)">
				<title>е·ҘдҪңиЎЁ.3</title>
				<desc>еғ§ж®ҳжӮ”</desc>
				<rect x="0" y="183.585" width="88.1575" height="19.8425" class="st1"/>
				<text x="20.62" y="198.31" class="st2">еғ§ж®ҳжӮ”</text>			</g>
			<g id="shape5-8" transform="translate(383.953,-182.835)">
				<title>е·ҘдҪңиЎЁ.5</title>
				<desc>гҖ”йҠ…йҚұеҫӢгҖ•</desc>
				<rect x="0" y="183.585" width="88.1575" height="19.8425" class="st1"/>
				<text x="4" y="198.31" class="st2">гҖ”йҠ…йҚұеҫӢгҖ•</text>			</g>
			<g id="shape8-11" transform="translate(0,-146.268)">
				<title>е·ҘдҪңиЎЁ.8</title>
				<desc>дҝұиҲҚеҪҢв”Җв”Җв”Җв”ҖгҖҖжӢҳзқ’еҪҢв”Җв”Җв”Җв”ҖгҖҖжӢҳзқ’еҪҢ</desc>
				<rect x="0" y="183.585" width="344.126" height="19.8425" class="st1"/>
				<text x="20.62" y="198.31" class="st2">дҝұиҲҚеҪҢв”Җв”Җв”Җв”ҖгҖҖжӢҳзқ’еҪҢв”Җв”Җв”Җв”ҖгҖҖжӢҳзқ’еҪҢ</text>			</g>
			<g id="shape9-14" transform="translate(1.73861E-13,-146.268)">
				<title>е·ҘдҪңиЎЁ.9</title>
				<desc>9.</desc>
				<rect x="0" y="183.585" width="24.378" height="19.8425" class="st1"/>
				<text x="6.55" y="198.31" class="st2">9.</text>			</g>
			<g id="shape10-17" transform="translate(127.984,-146.268)">
				<title>е·ҘдҪңиЎЁ.10</title>
				<desc>9.</desc>
				<rect x="0" y="183.585" width="24.378" height="19.8425" class="st1"/>
				<text x="6.55" y="198.31" class="st2">9.</text>			</g>
			<g id="shape11-20" transform="translate(256.11,-146.268)">
				<title>е·ҘдҪңиЎЁ.11</title>
				<desc>9.</desc>
				<rect x="0" y="183.585" width="24.378" height="19.8425" class="st1"/>
				<text x="6.55" y="198.31" class="st2">9.</text>			</g>
			<g id="shape16-23" transform="translate(383.953,-146.268)">
				<title>е·ҘдҪңиЎЁ.16</title>
				<desc>зһ»гҖҖжіў</desc>
				<rect x="0" y="183.585" width="88.1575" height="19.8425" class="st1"/>
				<text x="20.62" y="198.31" class="st2">зһ»гҖҖжіў</text>			</g>
			<g id="shape12-26" transform="translate(383.953,-146.268)">
				<title>е·ҘдҪңиЎЁ.12</title>
				<desc>9.</desc>
				<rect x="0" y="183.585" width="24.378" height="19.8425" class="st1"/>
				<text x="6.55" y="198.31" class="st2">9.</text>			</g>
			<g id="shape14-29" transform="translate(-1.59872E-14,-182.835)">
				<title>е·ҘдҪңиЎЁ.14</title>
				<desc>гҖ”еҚҒиӘҰеҫӢгҖ•</desc>
				<rect x="0" y="183.585" width="88.1575" height="19.8425" class="st1"/>
				<text x="4" y="198.31" class="st2">гҖ”еҚҒиӘҰеҫӢгҖ•</text>			</g>
			<g id="shape15-32" transform="translate(255.969,-182.835)">
				<title>е·ҘдҪңиЎЁ.15</title>
				<desc>гҖ”еӣӣеҲҶеҫӢгҖ•</desc>
				<rect x="0" y="183.585" width="88.1575" height="19.8425" class="st1"/>
				<text x="4" y="198.31" class="st2">гҖ”еӣӣеҲҶеҫӢгҖ•</text>			</g>
			<g id="shape17-35" transform="translate(511.937,-182.835)">
				<title>е·ҘдҪңиЎЁ.17</title>
				<desc>гҖ”дә”еҲҶеҫӢгҖ•</desc>
				<rect x="0" y="183.585" width="88.1575" height="19.8425" class="st1"/>
				<text x="4" y="198.31" class="st2">гҖ”дә”еҲҶеҫӢгҖ•</text>			</g>
			<g id="shape18-38" transform="translate(127.984,-182.835)">
				<title>е·ҘдҪңиЎЁ.18</title>
				<desc>гҖ”ж №жңүеҫӢгҖ•</desc>
				<rect x="0" y="183.585" width="88.1575" height="19.8425" class="st1"/>
				<text x="4" y="198.31" class="st2">гҖ”ж №жңүеҫӢгҖ•</text>			</g>
			<g id="shape1-41" transform="translate(0,-109.701)">
				<title>е·ҘдҪңиЎЁ.1</title>
				<desc>зһ»гҖҖжіўв”Җв”Җв”Җв”ҖгҖҖзҫҜгҖҖзЈЁв”Җв”Җв”Җв”ҖгҖҖзһ»гҖҖжіў</desc>
				<rect x="0" y="183.585" width="344.126" height="19.8425" class="st1"/>
				<text x="20.62" y="198.31" class="st2">зһ»гҖҖжіўв”Җв”Җв”Җв”ҖгҖҖзҫҜгҖҖзЈЁв”Җв”Җв”Җв”ҖгҖҖзһ»гҖҖжіў</text>			</g>
			<g id="shape19-44" transform="translate(4.33653E-13,-109.701)">
				<title>е·ҘдҪңиЎЁ.19</title>
				<desc>10</desc>
				<rect x="0" y="183.585" width="24.378" height="19.8425" class="st1"/>
				<text x="4.67" y="198.31" class="st2">10</text>			</g>
			<g id="shape20-47" transform="translate(127.984,-109.701)">
				<title>е·ҘдҪңиЎЁ.20</title>
				<desc>10</desc>
				<rect x="0" y="183.585" width="24.378" height="19.8425" class="st1"/>
				<text x="4.67" y="198.31" class="st2">10</text>			</g>
			<g id="shape21-50" transform="translate(256.11,-109.701)">
				<title>е·ҘдҪңиЎЁ.21</title>
				<desc>10</desc>
				<rect x="0" y="183.585" width="24.378" height="19.8425" class="st1"/>
				<text x="4.67" y="198.31" class="st2">10</text>			</g>
			<g id="shape22-53" transform="translate(383.953,-109.701)">
				<title>е·ҘдҪңиЎЁ.22</title>
				<desc>жӢҳзқ’еҪҢ</desc>
				<rect x="0" y="183.585" width="88.1575" height="19.8425" class="st1"/>
				<text x="20.62" y="198.31" class="st2">жӢҳзқ’еҪҢ</text>			</g>
			<g id="shape24-56" transform="translate(383.953,-109.701)">
				<title>е·ҘдҪңиЎЁ.24</title>
				<desc>10</desc>
				<rect x="0" y="183.585" width="24.378" height="19.8425" class="st1"/>
				<text x="4.67" y="198.31" class="st2">10</text>			</g>
			<g id="shape25-59" transform="translate(5.63549E-13,-73.1339)">
				<title>е·ҘдҪңиЎЁ.25</title>
				<desc>11</desc>
				<rect x="0" y="183.585" width="24.378" height="19.8425" class="st1"/>
				<text x="4.67" y="198.31" class="st2">11</text>			</g>
			<g id="shape26-62" transform="translate(127.984,-73.1339)">
				<title>е·ҘдҪңиЎЁ.26</title>
				<desc>11</desc>
				<rect x="0" y="183.585" width="24.378" height="19.8425" class="st1"/>
				<text x="4.67" y="198.31" class="st2">11</text>			</g>
			<g id="shape27-65" transform="translate(256.11,-73.1339)">
				<title>е·ҘдҪңиЎЁ.27</title>
				<desc>11</desc>
				<rect x="0" y="183.585" width="24.378" height="19.8425" class="st1"/>
				<text x="4.67" y="198.31" class="st2">11</text>			</g>
			<g id="shape28-68" transform="translate(383.953,-73.1339)">
				<title>е·ҘдҪңиЎЁ.28</title>
				<desc>11</desc>
				<rect x="0" y="183.585" width="24.378" height="19.8425" class="st1"/>
				<text x="4.67" y="198.31" class="st2">11</text>			</g>
			<g id="shape29-71" transform="translate(511.937,-73.1339)">
				<title>е·ҘдҪңиЎЁ.29</title>
				<desc>11</desc>
				<rect x="0" y="183.585" width="24.378" height="19.8425" class="st1"/>
				<text x="4.67" y="198.31" class="st2">11</text>			</g>
			<g id="shape30-74" transform="translate(127.984,-36.5669)">
				<title>е·ҘдҪңиЎЁ.30</title>
				<desc>иЈңзү№дјҪзҫ…в”Җв”Җв”ҖгҖҖдәәв”Җв”Җ</desc>
				<rect x="0" y="183.585" width="216" height="19.8425" class="st1"/>
				<text x="20.62" y="198.31" class="st2">иЈңзү№дјҪзҫ…в”Җв”Җв”ҖгҖҖдәәв”Җв”Җ</text>			</g>
			<g id="shape31-77" transform="translate(7.49401E-13,-18.2835)">
				<title>е·ҘдҪңиЎЁ.31</title>
				<desc>12</desc>
				<rect x="0" y="183.585" width="24.378" height="19.8425" class="st1"/>
				<text x="4.67" y="198.31" class="st2">12</text>			</g>
			<g id="shape32-80" transform="translate(127.984,-36.5669)">
				<title>е·ҘдҪңиЎЁ.32</title>
				<desc>12</desc>
				<rect x="0" y="183.585" width="24.378" height="19.8425" class="st1"/>
				<text x="4.67" y="198.31" class="st2">12</text>			</g>
			<g id="shape33-83" transform="translate(256.11,-36.5669)">
				<title>е·ҘдҪңиЎЁ.33</title>
				<desc>12</desc>
				<rect x="0" y="183.585" width="24.378" height="19.8425" class="st1"/>
				<text x="4.67" y="198.31" class="st2">12</text>			</g>
			<g id="shape34-86" transform="translate(383.953,-36.5669)">
				<title>е·ҘдҪңиЎЁ.34</title>
				<desc>еҲҘгҖҖдҪҸв”Җв”Җв”Җв”ҖгҖҖеҲҘгҖҖдҪҸ</desc>
				<rect x="0" y="183.585" width="216" height="19.8425" class="st1"/>
				<text x="20.62" y="198.31" class="st2">еҲҘгҖҖдҪҸв”Җв”Җв”Җв”ҖгҖҖеҲҘгҖҖдҪҸ</text>			</g>
			<g id="shape35-89" transform="translate(383.953,-36.5669)">
				<title>е·ҘдҪңиЎЁ.35</title>
				<desc>12</desc>
				<rect x="0" y="183.585" width="24.378" height="19.8425" class="st1"/>
				<text x="4.67" y="198.31" class="st2">12</text>			</g>
			<g id="shape36-92" transform="translate(511.937,-36.5669)">
				<title>е·ҘдҪңиЎЁ.36</title>
				<desc>17</desc>
				<rect x="0" y="183.585" width="24.378" height="19.8425" class="st1"/>
				<text x="4.67" y="198.31" class="st2">17</text>			</g>
			<g id="shape37-95" transform="translate(383.953,-1.08002E-12)">
				<title>е·ҘдҪңиЎЁ.37</title>
				<desc>йӣҶв”Җв”Җ</desc>
				<rect x="0" y="183.585" width="88.1575" height="19.8425" class="st1"/>
				<text x="20.62" y="198.31" class="st2">йӣҶв”Җв”Җ</text>			</g>
			<g id="shape38-98" transform="translate(127.984,-3.97904E-13)">
				<title>е·ҘдҪңиЎЁ.38</title>
				<desc>еҲҘгҖҖдҪҸв”Җв”Җв”Җв”ҖгҖҖиҰҶгҖҖи—Ҹ</desc>
				<rect x="0" y="183.585" width="216" height="19.8425" class="st1"/>
				<text x="20.62" y="198.31" class="st2">еҲҘгҖҖдҪҸв”Җв”Җв”Җв”ҖгҖҖиҰҶгҖҖи—Ҹ</text>			</g>
			<g id="shape39-101" transform="translate(127.984,0)">
				<title>е·ҘдҪңиЎЁ.39</title>
				<desc>13</desc>
				<rect x="0" y="183.585" width="24.378" height="19.8425" class="st1"/>
				<text x="4.67" y="198.31" class="st2">13</text>			</g>
			<g id="shape40-104" transform="translate(256.11,-4.54747E-13)">
				<title>е·ҘдҪңиЎЁ.40</title>
				<desc>13</desc>
				<rect x="0" y="183.585" width="24.378" height="19.8425" class="st1"/>
				<text x="4.67" y="198.31" class="st2">13</text>			</g>
			<g id="shape41-107" transform="translate(383.953,-9.09495E-13)">
				<title>е·ҘдҪңиЎЁ.41</title>
				<desc>13</desc>
				<rect x="0" y="183.585" width="24.378" height="19.8425" class="st1"/>
				<text x="4.67" y="198.31" class="st2">13</text>			</g>
			<g id="shape4-110" transform="translate(64.8311,386.882) rotate(-161.914)">
				<title>е·ҘдҪңиЎЁ.4</title>
				<path d="M0 203.43 L58.89 203.43" class="st3"/>
			</g>
			<g id="shape6-113" transform="translate(190.872,350.402) rotate(161.993)">
				<title>е·ҘдҪңиЎЁ.6</title>
				<path d="M0 203.43 L58.87 203.43" class="st3"/>
			</g>
			<g id="shape7-116" transform="translate(414.837,296.937) rotate(-150.214)">
				<title>е·ҘдҪңиЎЁ.7</title>
				<path d="M0 203.43 L73.64 203.43" class="st3"/>
			</g>
			<g id="shape42-119" transform="translate(362.405,253.807) rotate(-131.012)">
				<title>е·ҘдҪңиЎЁ.42</title>
				<path d="M0 203.43 L97.41 203.43" class="st3"/>
			</g>
			<g id="shape44-122" transform="translate(286.372,370.341) rotate(-150.053)">
				<title>е·ҘдҪңиЎЁ.44</title>
				<path d="M0 203.43 L73.93 203.43" class="st3"/>
			</g>
			<g id="shape45-125" transform="translate(487.505,334.871) rotate(150.69)">
				<title>е·ҘдҪңиЎЁ.45</title>
				<path d="M0 203.43 L73.47 203.43" class="st3"/>
			</g>
			<g id="shape48-128" transform="translate(286.372,260.13) rotate(-150.053)">
				<title>е·ҘдҪңиЎЁ.48</title>
				<path d="M0 203.43 L73.93 203.43" class="st3"/>
			</g>
			<g id="shape49-131" transform="translate(487.505,224.66) rotate(150.69)">
				<title>е·ҘдҪңиЎЁ.49</title>
				<path d="M0 203.43 L73.47 203.43" class="st3"/>
			</g>
			<g id="shape47-134" transform="translate(669.074,254.246) rotate(131.154)">
				<title>е·ҘдҪңиЎЁ.47</title>
				<path d="M0 203.43 L97.13 203.43" class="st3"/>
			</g>
		</g>
	</g>
</svg>
